<svg width="82" height="82" viewBox="0 0 82 82" fill="none" xmlns="http://www.w3.org/2000/svg">
<g filter="url(#filter0_d_21_1088)">
<circle cx="41" cy="41" r="29" fill="white"/>
</g>
<path d="M41.0002 50.9168C46.477 50.9168 50.9168 46.477 50.9168 41.0002C50.9168 35.5233 46.477 31.0835 41.0002 31.0835C35.5233 31.0835 31.0835 35.5233 31.0835 41.0002C31.0835 46.477 35.5233 50.9168 41.0002 50.9168Z" stroke="#37474F" stroke-width="2" stroke-linecap="round" stroke-linejoin="round"/>
<path d="M40.9998 43.8332C42.5646 43.8332 43.8332 42.5646 43.8332 40.9998C43.8332 39.435 42.5646 38.1665 40.9998 38.1665C39.435 38.1665 38.1665 39.435 38.1665 40.9998C38.1665 42.5646 39.435 43.8332 40.9998 43.8332Z" fill="#37474F" stroke="#37474F" stroke-width="2" stroke-linecap="round" stroke-linejoin="round"/>
<path d="M41 53.7502V48.0835" stroke="#37474F" stroke-width="2" stroke-linecap="round" stroke-linejoin="round"/>
<path d="M41 28.25V33.9167" stroke="#37474F" stroke-width="2" stroke-linecap="round" stroke-linejoin="round"/>
<path d="M33.9167 41H28.25" stroke="#37474F" stroke-width="2" stroke-linecap="round" stroke-linejoin="round"/>
<path d="M53.7502 41H48.0835" stroke="#37474F" stroke-width="2" stroke-linecap="round" stroke-linejoin="round"/>
<defs>
<filter id="filter0_d_21_1088" x="0" y="0" width="82" height="82" filterUnits="userSpaceOnUse" color-interpolation-filters="sRGB">
<feFlood flood-opacity="0" result="BackgroundImageFix"/>
<feColorMatrix in="SourceAlpha" type="matrix" values="0 0 0 0 0 0 0 0 0 0 0 0 0 0 0 0 0 0 127 0" result="hardAlpha"/>
<feOffset/>
<feGaussianBlur stdDeviation="6"/>
<feComposite in2="hardAlpha" operator="out"/>
<feColorMatrix type="matrix" values="0 0 0 0 0 0 0 0 0 0 0 0 0 0 0 0 0 0 0.2 0"/>
<feBlend mode="normal" in2="BackgroundImageFix" result="effect1_dropShadow_21_1088"/>
<feBlend mode="normal" in="SourceGraphic" in2="effect1_dropShadow_21_1088" result="shape"/>
</filter>
</defs>
</svg>
